<svg version="1.1" id="Layer_1" xmlns="http://www.w3.org/2000/svg" xmlns:xlink="http://www.w3.org/1999/xlink" x="0px"
	y="0px" width="100%" viewBox="0 0 1920 1920" enable-background="new 0 0 1920 1920" xml:space="preserve">
	<path fill="#FFFFFF" opacity="1.000000" stroke="none" d="
M1256.000000,1921.000000 
	C837.333313,1921.000000 419.166656,1921.000000 1.000000,1921.000000 
	C1.000000,1281.000000 1.000000,641.000000 1.000000,1.000000 
	C641.000000,1.000000 1281.000000,1.000000 1921.000000,1.000000 
	C1921.000000,641.000000 1921.000000,1281.000000 1921.000000,1921.000000 
	C1699.500000,1921.000000 1478.000000,1921.000000 1256.000000,1921.000000 
M873.983521,669.142151 
	C873.998474,653.105652 874.013367,637.069092 874.074341,620.552612 
	C874.074341,620.552612 874.104370,620.071350 874.732849,619.939209 
	C874.835327,618.959351 874.937744,617.979553 875.028809,616.187134 
	C876.113647,610.644531 877.198486,605.101868 878.405029,598.937561 
	C875.541138,598.937561 873.903137,598.937500 872.265198,598.937561 
	C706.773560,598.939270 541.281921,598.933411 375.790283,598.986511 
	C371.666809,598.987854 367.457703,599.227539 363.434357,600.060425 
	C341.248322,604.653442 332.606018,622.133179 332.247864,640.635925 
	C331.961823,655.413147 332.929474,670.210510 332.946045,684.999329 
	C332.955017,692.985107 332.581665,692.984436 340.689789,692.984436 
	C516.680908,692.984192 692.671997,692.984131 868.663086,692.983643 
	C870.496338,692.983643 872.329651,692.990906 874.162781,692.972595 
	C877.198425,692.942261 878.177063,691.836792 877.398743,688.562317 
	C875.948853,682.462524 875.060242,676.229370 873.983521,669.142151 
M1474.990356,807.938354 
	C1475.292725,810.570068 1475.595215,813.201721 1475.930542,816.120422 
	C1481.237549,814.036926 1481.138916,810.540161 1481.878540,807.028625 
	C1483.571289,807.039795 1485.264160,807.051025 1487.063110,807.638916 
	C1487.390625,807.944397 1487.718140,808.249878 1488.045776,808.555298 
	C1488.377686,808.056580 1488.709717,807.557800 1489.973511,807.039124 
	C1502.982300,807.034790 1515.991211,807.030457 1529.543335,807.580994 
	C1532.028931,807.366211 1534.514526,807.151428 1537.836182,806.932495 
	C1539.957886,806.617371 1542.097656,806.391846 1544.197998,805.970337 
	C1550.332764,804.739319 1556.741821,804.192993 1562.518188,801.996887 
	C1575.556396,797.039856 1588.685547,791.995972 1599.301880,782.406616 
	C1605.153442,777.121094 1611.555542,772.283081 1616.614380,766.315002 
	C1627.238770,753.780945 1635.239990,739.673157 1640.177368,723.797485 
	C1643.728394,712.379456 1644.420776,700.664307 1644.749268,688.983215 
	C1644.960449,681.473694 1643.173096,673.884216 1642.048096,666.365540 
	C1639.343872,648.294800 1631.083252,632.603760 1620.433228,618.139709 
	C1616.324219,612.559082 1611.239624,607.655334 1606.307861,602.735352 
	C1602.392456,598.829285 1598.456055,594.655029 1593.771729,591.876648 
	C1586.700195,587.682312 1579.128784,584.199585 1571.477661,581.147095 
	C1562.051147,577.386292 1552.419312,573.983337 1541.712769,573.379456 
	C1540.475098,573.240173 1539.237427,573.100891 1537.062500,572.968262 
	C1522.947021,572.185181 1509.028320,573.448059 1495.267822,576.737732 
	C1491.380615,577.666992 1485.888550,574.165588 1485.061279,570.524292 
	C1483.032715,561.596252 1480.818848,552.698792 1479.165527,543.699829 
	C1477.172974,532.853271 1473.461914,522.619019 1469.204224,512.529297 
	C1467.796143,509.192841 1466.736938,505.650421 1464.914062,502.558319 
	C1458.317505,491.368958 1452.905273,479.450134 1444.296021,469.486023 
	C1438.674561,462.979980 1433.832031,455.755341 1427.869141,449.599731 
	C1416.618286,437.985168 1404.238525,427.694427 1390.700195,418.667511 
	C1379.536499,411.223907 1368.054932,404.469788 1355.529419,399.928345 
	C1342.724976,395.285675 1329.632324,391.169678 1316.362305,388.162598 
	C1305.634033,385.731415 1294.482666,384.923401 1283.466309,384.087860 
	C1275.354858,383.472656 1267.158569,383.975342 1258.699829,383.537109 
	C1258.133179,383.699982 1257.566650,383.862854 1256.149170,384.030273 
	C1252.694580,384.379456 1249.214478,384.566681 1245.789429,385.104370 
	C1225.306152,388.319977 1205.428955,393.535889 1186.467896,402.194214 
	C1171.264160,409.136810 1156.743774,417.174347 1143.784180,427.707703 
	C1135.045288,434.810608 1126.193115,442.020020 1118.719360,450.370178 
	C1109.846558,460.283569 1102.116821,471.273163 1094.416504,482.167297 
	C1087.574219,491.847321 1087.138550,492.375366 1074.891846,490.189636 
	C1073.916870,490.015594 1072.901001,490.028412 1071.903931,490.026062 
	C1059.987549,489.998108 1048.071167,489.980591 1036.154785,489.966522 
	C1019.949341,489.947388 1004.791504,494.814209 990.078674,500.784607 
	C976.171997,506.427917 963.192261,513.989197 951.608521,523.703979 
	C948.815491,526.046387 945.873047,528.268860 943.393921,530.916077 
	C936.732727,538.028809 929.792358,544.963257 923.875305,552.669128 
	C916.265320,562.579651 909.295349,573.042603 905.041809,584.971619 
	C901.941101,593.667480 898.483093,602.289001 896.166687,611.199036 
	C892.636597,624.777344 892.485168,638.778076 893.047729,652.724976 
	C893.390503,661.222534 893.691956,669.788818 895.017273,678.165222 
	C897.493286,693.813965 903.181519,708.500916 910.452942,722.525879 
	C913.169739,727.766052 916.168213,732.971008 919.790955,737.603333 
	C924.631775,743.793335 930.884644,748.944641 935.299927,755.385925 
	C941.437805,764.340393 949.413391,771.184875 958.068970,777.154419 
	C965.657288,782.387939 974.088684,786.423889 982.251343,790.795166 
	C1001.764587,801.245056 1022.808105,806.763550 1044.762085,806.843628 
	C1142.382202,807.199951 1240.004150,807.010620 1337.625488,807.027954 
	C1344.014893,807.029114 1350.404419,807.109009 1356.684082,807.920776 
	C1353.235352,814.332031 1349.786621,820.743286 1345.391968,827.052612 
	C1341.268921,827.364990 1337.145020,827.960144 1333.022949,827.948364 
	C1237.401367,827.675354 1141.779663,827.360352 1046.158447,826.979736 
	C1034.231323,826.932251 1022.587952,825.213684 1010.872681,822.428589 
	C996.659058,819.049683 983.085083,814.428833 970.229858,807.716675 
	C952.313782,798.361877 935.814758,786.990356 922.294495,771.746826 
	C919.190002,768.246582 915.671143,766.898499 910.907410,766.901184 
	C720.915344,767.008606 530.923218,766.992676 340.931122,766.992859 
	C333.002411,766.992859 333.001221,766.993774 333.001190,774.882080 
	C333.000427,1021.705139 332.989166,1268.528198 333.076843,1515.351318 
	C333.078613,1520.259521 334.203247,1525.172241 334.865936,1530.074463 
	C337.108673,1546.665405 356.796234,1559.122803 371.695618,1559.116821 
	C763.179260,1558.962036 1154.662964,1558.994629 1546.146729,1558.994995 
	C1547.146729,1558.994995 1548.154297,1559.073853 1549.145386,1558.979736 
	C1557.325073,1558.203125 1565.097534,1556.188965 1572.008789,1551.497803 
	C1584.653809,1542.914917 1588.942749,1530.236572 1588.949951,1515.809937 
	C1589.024658,1365.482910 1588.998535,1215.155762 1588.999878,1064.828735 
	C1589.000488,983.832092 1589.008423,902.835449 1588.960815,821.838806 
	C1588.959351,819.337402 1588.377197,816.836365 1588.004150,813.841064 
	C1586.338989,814.492981 1585.587280,814.777893 1584.842529,815.080200 
	C1563.806152,823.617371 1542.050049,828.359863 1519.233887,828.033691 
	C1503.404419,827.807312 1487.568726,828.046143 1471.736694,827.955261 
	C1466.508667,827.925232 1461.233521,827.337646 1457.224731,831.305298 
	C1460.179199,826.374084 1462.958252,821.325806 1466.145020,816.549561 
	C1468.580688,812.899109 1471.532227,809.592896 1474.581421,806.629944 
	C1474.708374,806.782104 1474.835327,806.934326 1474.990356,807.938354 
M867.500000,744.959412 
	C878.218262,744.959412 888.936584,744.959412 900.373169,744.959412 
	C899.561829,743.055603 899.256104,742.169312 898.823669,741.349915 
	C895.032654,734.165649 890.703308,727.207153 887.605286,719.737305 
	C885.744263,715.250000 883.614624,713.867554 878.875122,713.874390 
	C782.398987,714.014099 685.922546,713.979248 589.446228,713.980408 
	C587.613403,713.980408 585.768372,713.860657 583.950012,714.026550 
	C578.679810,714.507263 574.481079,716.729126 571.780823,721.522400 
	C566.982605,730.039856 570.619690,744.979614 587.068542,744.974243 
	C680.212341,744.943848 773.356201,744.959412 867.500000,744.959412 
M516.155029,745.902161 
	C519.135315,743.725708 522.393738,741.827148 524.971130,739.248047 
	C526.149170,738.069275 525.985291,735.549500 526.429993,733.637878 
	C524.600342,734.486206 522.129028,734.853271 521.063293,736.274475 
	C518.055176,740.285767 514.076355,742.016663 509.470520,741.563843 
	C505.104218,741.134521 500.714569,735.713379 500.019318,731.106873 
	C499.445160,727.302673 502.444458,721.822815 506.151489,719.902954 
	C510.138763,717.837952 515.695801,718.779480 518.298523,721.168579 
	C518.839172,724.112427 518.624023,726.974365 519.613464,727.480225 
	C521.609558,728.500854 525.559204,729.296875 526.375977,728.292725 
	C528.178284,726.076965 528.538147,722.687988 529.304138,720.337341 
	C526.113098,718.896240 524.262573,717.827148 522.271851,717.211182 
	C518.393188,716.010925 514.487915,714.506653 510.499847,714.134949 
	C503.355011,713.469055 499.060242,718.160706 496.289734,723.897339 
	C493.425537,729.828125 494.727325,735.754700 499.170471,740.475586 
	C503.467621,745.041260 508.472565,748.667236 516.155029,745.902161 
M399.130737,716.409851 
	C395.488281,720.050781 391.937744,723.790833 388.165222,727.291565 
	C386.235474,729.082275 386.287415,730.639954 387.938782,732.329468 
	C391.654388,736.130859 395.349182,739.962646 399.265991,743.548767 
	C400.064240,744.279602 401.800049,743.986389 403.103699,744.165222 
	C402.983856,742.855347 403.319824,741.213074 402.654602,740.300903 
	C400.980164,738.005066 398.854004,736.038696 396.098236,733.065613 
	C398.756927,732.573364 400.259064,732.102112 401.774811,732.053162 
	C405.425964,731.935181 409.109924,732.280640 412.729218,731.921204 
	C415.148163,731.681030 418.486938,733.801453 419.845795,729.809814 
	C417.522858,729.194458 415.219971,728.159973 412.872925,728.047729 
	C407.373657,727.784851 401.853241,727.963745 396.341400,727.963745 
	C396.019012,727.277100 395.696594,726.590454 395.374176,725.903809 
	C397.686066,724.054688 400.113678,722.327881 402.257111,720.300659 
	C403.216614,719.393188 403.606049,717.883057 404.254181,716.646362 
	C402.727448,716.404907 401.200684,716.163452 399.130737,716.409851 
M458.960846,741.516541 
	C461.750916,738.722778 464.519379,735.906921 467.338348,733.142517 
	C469.363770,731.156433 469.607391,729.171509 467.528442,727.095520 
	C464.111969,723.683899 460.845764,720.093262 457.173462,716.982788 
	C455.962494,715.957031 453.692261,716.181946 451.906342,715.835022 
	C452.450073,717.549377 452.563293,719.626404 453.633789,720.896912 
	C455.450348,723.052795 457.870544,724.700134 460.037018,726.561157 
	C459.874298,727.074280 459.711609,727.587341 459.548889,728.100464 
	C452.120728,728.100464 444.692596,728.100464 437.264465,728.100464 
	C437.177368,728.938416 437.090271,729.776367 437.003143,730.614319 
	C443.627411,734.045654 451.659973,730.292236 458.227509,732.759521 
	C458.842255,737.811646 448.627930,738.134338 453.588318,745.090210 
	C455.417542,743.930359 456.929962,742.971375 458.960846,741.516541 
z" />
	<path fill="#EDEDED" opacity="1.000000" stroke="none" d="
M1457.366577,831.987183 
	C1461.233521,827.337646 1466.508667,827.925232 1471.736694,827.955261 
	C1487.568726,828.046143 1503.404419,827.807312 1519.233887,828.033691 
	C1542.050049,828.359863 1563.806152,823.617371 1584.842529,815.080200 
	C1585.587280,814.777893 1586.338989,814.492981 1588.004150,813.841064 
	C1588.377197,816.836365 1588.959351,819.337402 1588.960815,821.838806 
	C1589.008423,902.835449 1589.000488,983.832092 1588.999878,1064.828735 
	C1588.998535,1215.155762 1589.024658,1365.482910 1588.949951,1515.809937 
	C1588.942749,1530.236572 1584.653809,1542.914917 1572.008789,1551.497803 
	C1565.097534,1556.188965 1557.325073,1558.203125 1549.145386,1558.979736 
	C1548.154297,1559.073853 1547.146729,1558.994995 1546.146729,1558.994995 
	C1154.662964,1558.994629 763.179260,1558.962036 371.695618,1559.116821 
	C356.796234,1559.122803 337.108673,1546.665405 334.865936,1530.074463 
	C334.203247,1525.172241 333.078613,1520.259521 333.076843,1515.351318 
	C332.989166,1268.528198 333.000427,1021.705139 333.001190,774.882080 
	C333.001221,766.993774 333.002411,766.992859 340.931122,766.992859 
	C530.923218,766.992676 720.915344,767.008606 910.907410,766.901184 
	C915.671143,766.898499 919.190002,768.246582 922.294495,771.746826 
	C935.814758,786.990356 952.313782,798.361877 970.229858,807.716675 
	C983.085083,814.428833 996.659058,819.049683 1010.872681,822.428589 
	C1022.587952,825.213684 1034.231323,826.932251 1046.158447,826.979736 
	C1141.779663,827.360352 1237.401367,827.675354 1333.022949,827.948364 
	C1337.145020,827.960144 1341.268921,827.364990 1345.759521,827.438110 
	C1343.485962,832.956238 1340.916870,838.127563 1338.189453,843.213989 
	C1331.703613,855.309082 1325.090942,867.336304 1318.625854,879.442444 
	C1311.510132,892.767761 1304.384277,906.090027 1297.476318,919.523376 
	C1288.518677,936.942932 1279.879639,954.526855 1270.853638,971.910339 
	C1268.796875,975.871643 1269.921631,976.395935 1273.689209,976.392456 
	C1310.012817,976.358521 1346.336304,976.417664 1382.659912,976.478516 
	C1384.405151,976.481445 1386.149902,976.749634 1388.882202,976.976135 
	C1369.061035,1026.706299 1349.552246,1075.652710 1330.043457,1124.598999 
	C1331.830811,1125.035400 1332.419556,1124.985352 1332.675781,1124.667236 
	C1340.354126,1115.140137 1347.968506,1105.561279 1355.657349,1096.042847 
	C1367.033081,1081.960205 1378.405151,1067.874023 1389.881714,1053.873901 
	C1397.141357,1045.017944 1404.682617,1036.392578 1411.928223,1027.525513 
	C1420.998535,1016.425659 1429.895020,1005.183777 1439.213867,993.945618 
	C1440.018188,993.177063 1440.475220,992.466125 1440.920044,991.523804 
	C1440.907837,991.292419 1441.231079,990.960388 1441.600586,990.945618 
	C1442.925171,989.725159 1443.880249,988.519409 1444.723999,987.000488 
	C1445.733765,985.455994 1446.854858,984.224670 1448.324219,982.943481 
	C1450.076538,980.864197 1451.480713,978.834900 1452.893311,976.856689 
	C1452.901978,976.907776 1452.801392,976.882812 1453.164917,976.881470 
	C1453.993530,976.721863 1454.609863,976.702332 1454.901245,976.384705 
	C1459.857910,970.980835 1464.801270,965.563354 1469.618896,960.036682 
	C1469.855347,959.765564 1468.915771,958.469238 1468.569824,957.350708 
	C1469.062500,956.695862 1469.509155,956.340637 1470.304688,955.940369 
	C1473.780029,952.505493 1479.172729,950.825500 1478.959229,944.944641 
	C1478.973389,944.984070 1478.896362,944.951233 1479.241333,944.908691 
	C1480.002441,944.155762 1480.418457,943.445374 1480.849365,942.799500 
	C1480.864380,942.864014 1480.735596,942.833313 1481.134155,942.840820 
	C1482.298706,941.670898 1483.064697,940.493408 1483.692627,939.010437 
	C1484.640503,937.447937 1485.726440,936.190857 1487.202881,934.934509 
	C1491.231201,934.497559 1493.220093,932.795349 1494.330078,928.947388 
	C1495.319702,925.516418 1497.973389,922.565552 1499.813721,919.312012 
	C1499.734619,919.221130 1499.858521,919.014648 1500.221924,918.964417 
	C1502.017700,917.078369 1503.450195,915.242615 1504.828369,913.299255 
	C1504.774048,913.191650 1504.938599,913.015503 1505.168701,912.874939 
	C1505.574951,912.427063 1505.751343,912.119812 1505.898560,911.876465 
	C1505.869385,911.940369 1505.755859,911.857544 1506.124390,911.863159 
	C1508.619385,908.749146 1510.745850,905.629456 1512.838623,902.329834 
	C1512.804932,902.149841 1513.114136,901.953491 1513.482910,901.943359 
	C1517.202393,901.844055 1516.948242,899.414551 1517.052612,896.996216 
	C1517.150635,896.838318 1517.519531,896.883667 1517.928955,896.875854 
	C1519.186646,895.717834 1520.035156,894.567566 1520.817871,893.305908 
	C1520.752197,893.194580 1520.919678,892.997559 1521.272949,892.951233 
	C1522.913696,891.921936 1524.313232,891.054260 1525.466187,889.932983 
	C1528.151245,887.321594 1526.726440,884.833008 1524.021851,884.432617 
	C1520.453247,883.904419 1516.679199,884.765442 1512.537842,885.149902 
	C1506.368408,885.053711 1500.654419,884.836792 1494.813721,884.270447 
	C1494.125977,883.634399 1493.572266,883.112915 1493.003174,883.095703 
	C1480.250732,882.709473 1467.496948,882.350647 1454.741455,882.082275 
	C1453.510132,882.056335 1452.265747,882.656860 1450.608398,883.106018 
	C1448.447021,883.112000 1446.704468,882.978516 1444.853760,882.470398 
	C1441.079102,881.740784 1437.402588,881.028076 1433.749268,881.131897 
	C1430.122070,881.234985 1428.404541,880.170837 1428.807373,876.315308 
	C1428.730957,876.211365 1428.878906,876.000000 1429.249023,875.926880 
	C1430.045654,875.040527 1430.472168,874.227417 1430.840698,873.082153 
	C1432.495239,870.164917 1434.207764,867.579712 1436.296631,864.940247 
	C1437.402588,863.708740 1438.131836,862.531494 1438.725464,861.124878 
	C1438.742432,860.590027 1438.895020,860.284485 1439.386230,859.932739 
	C1441.973999,857.531372 1444.473755,855.356262 1446.355713,852.737305 
	C1447.169556,851.604675 1446.707886,849.555664 1446.812134,847.586426 
	C1447.550415,846.501526 1448.302368,845.753113 1449.406616,844.917542 
	C1450.131836,844.016479 1450.504517,843.202576 1450.800171,842.302429 
	C1450.723022,842.216248 1450.835327,842.014038 1451.214233,841.940918 
	C1452.022217,841.039124 1452.451416,840.210449 1452.784668,839.088013 
	C1453.132202,838.195007 1453.575439,837.595764 1454.374023,836.937622 
	C1455.469482,835.535950 1456.209839,834.193176 1456.963867,832.590942 
	C1457.107178,832.216736 1457.236816,832.101990 1457.366577,831.987183 
M760.474609,1031.128174 
	C759.473694,1031.102783 758.059448,1030.632202 757.534485,1031.119629 
	C750.445068,1037.702026 743.479370,1044.417603 736.610718,1050.978271 
	C755.134033,1069.547607 772.685974,1087.287109 790.447021,1104.814697 
	C793.625305,1107.951172 792.871765,1109.758911 790.125427,1112.475464 
	C773.545166,1128.876221 757.095947,1145.409424 740.612244,1161.907715 
	C739.355896,1163.165283 738.171753,1164.494995 737.730347,1164.964844 
	C744.451721,1172.261597 750.755554,1179.215088 757.259766,1185.976074 
	C757.835083,1186.573975 760.233826,1186.435425 760.916992,1185.760132 
	C771.991089,1174.814697 782.909912,1163.712524 793.895142,1152.676758 
	C801.122009,1145.416382 808.398315,1138.205322 815.974854,1130.650635 
	C817.580017,1132.186401 818.894653,1133.397461 820.158020,1134.660034 
	C836.536621,1151.027710 852.979553,1167.332397 869.218445,1183.837646 
	C872.330811,1187.000977 874.457947,1187.725342 877.599548,1184.006470 
	C881.210449,1179.732056 885.270264,1175.832520 889.199158,1171.833008 
	C891.117310,1169.880493 893.180908,1168.070923 895.265747,1166.114868 
	C894.157166,1164.846802 893.548218,1164.063721 892.852600,1163.367310 
	C875.992493,1146.490234 859.214294,1129.529175 842.180420,1112.828979 
	C838.670288,1109.387573 838.928040,1107.425781 842.281067,1104.078247 
	C859.726501,1086.661743 876.923401,1068.996216 894.680481,1050.935547 
	C889.419189,1045.435059 883.560242,1039.650269 878.120178,1033.495361 
	C874.836731,1029.780273 872.656433,1029.585449 869.004333,1033.327881 
	C852.833862,1049.898926 836.349487,1066.163696 819.965332,1082.525879 
	C818.717407,1083.772095 817.364868,1084.913696 815.016296,1087.057251 
	C796.742310,1068.372681 778.805725,1050.032959 760.474609,1031.128174 
M1074.498779,1055.001221 
	C1066.959717,1047.463379 1059.488892,1039.854736 1051.807739,1032.464600 
	C1050.665405,1031.365479 1047.597900,1030.323486 1047.002441,1030.896973 
	C1040.043823,1037.599365 1033.388184,1044.616333 1026.338867,1051.873047 
	C1032.121826,1057.409058 1037.202393,1062.155518 1042.152588,1067.034546 
	C1055.138794,1079.833618 1068.044067,1092.715210 1081.045166,1105.499023 
	C1083.117676,1107.536865 1083.433594,1109.130493 1081.221558,1111.322144 
	C1069.569580,1122.866211 1058.046875,1134.540894 1046.399780,1146.089966 
	C1039.847534,1152.587036 1033.141846,1158.929199 1025.732544,1166.087769 
	C1032.629395,1172.670654 1038.867798,1178.304321 1044.702759,1184.328735 
	C1047.657349,1187.379395 1049.514038,1187.126709 1052.373901,1184.228271 
	C1068.752441,1167.628784 1085.322021,1151.218018 1101.744263,1134.661255 
	C1103.005615,1133.389526 1103.628174,1131.484009 1104.547607,1129.873047 
	C1106.757202,1131.575195 1107.465576,1131.988770 1108.026611,1132.549561 
	C1125.374756,1149.888550 1142.760010,1167.191162 1159.980469,1184.656250 
	C1162.176025,1186.883057 1163.344849,1187.791626 1165.791870,1185.018066 
	C1169.494385,1180.821289 1173.598999,1176.974365 1177.600220,1173.047485 
	C1180.024536,1170.668335 1182.576172,1168.418823 1185.849854,1165.390015 
	C1183.375977,1163.281372 1181.229126,1161.683472 1179.351929,1159.814697 
	C1163.415405,1143.949829 1147.579590,1127.983398 1131.576294,1112.186401 
	C1128.817261,1109.462891 1128.371704,1107.412964 1131.541504,1104.919067 
	C1132.711426,1103.998535 1133.680054,1102.822144 1134.738647,1101.760620 
	C1151.394043,1085.060181 1168.049072,1068.359375 1185.118530,1051.243286 
	C1177.992798,1043.879272 1170.935303,1036.585693 1162.440308,1027.806763 
	C1142.836914,1047.873657 1124.288086,1066.861084 1105.470825,1086.123291 
	C1095.191284,1075.792358 1085.095703,1065.646118 1074.498779,1055.001221 
M1123.564819,1326.815552 
	C1125.127686,1323.874512 1122.604370,1322.991699 1120.917725,1321.949341 
	C1105.550903,1312.455078 1089.134277,1305.096191 1071.795532,1300.282593 
	C1053.324585,1295.154663 1034.729126,1290.249023 1015.446411,1288.866943 
	C999.104370,1287.695312 982.794800,1285.613037 966.439819,1285.218750 
	C952.214966,1284.875610 937.908447,1285.887451 923.708496,1287.115601 
	C909.557312,1288.339844 895.306702,1289.680298 881.434387,1292.574341 
	C858.667725,1297.323853 836.082581,1303.117310 815.275146,1314.082764 
	C809.077271,1317.349121 802.995728,1320.835938 796.592041,1324.370239 
	C801.710999,1332.030273 806.283630,1338.916626 810.903503,1345.771362 
	C814.268494,1350.763916 814.786621,1350.456299 820.013977,1347.724731 
	C828.735474,1343.167114 837.460388,1338.220947 846.764099,1335.263672 
	C861.395325,1330.613159 876.344543,1326.515259 891.458740,1323.944214 
	C910.493835,1320.706177 929.781921,1318.277466 949.051880,1317.307739 
	C965.060181,1316.502075 981.280396,1317.532593 997.259583,1319.178345 
	C1013.995422,1320.901978 1030.662231,1323.803711 1047.165527,1327.146973 
	C1067.146729,1331.194336 1086.281250,1337.929199 1103.689453,1348.872559 
	C1107.117676,1351.027588 1108.979492,1349.036133 1110.635986,1346.575439 
	C1114.891602,1340.253784 1119.035889,1333.857422 1123.564819,1326.815552 
z" />
	<path fill="#DADADA" opacity="1.000000" stroke="none" d="
M1486.956909,807.062195 
	C1485.264160,807.051025 1483.571289,807.039795 1481.021606,807.015137 
	C1478.430542,807.029907 1476.696533,807.058228 1474.962402,807.086548 
	C1474.835327,806.934326 1474.708374,806.782104 1474.542725,806.085327 
	C1478.148193,799.844543 1481.731445,794.108276 1485.449463,788.460754 
	C1492.902588,777.139771 1500.614746,765.984558 1507.865479,754.536438 
	C1513.364868,745.853516 1512.974731,745.395874 1502.408325,745.386597 
	C1467.262573,745.355713 1432.115234,745.541565 1396.973022,745.189331 
	C1391.598755,745.135498 1388.428711,746.231750 1385.958130,751.082275 
	C1376.397095,769.853943 1366.540405,788.475098 1356.793823,807.152283 
	C1350.404419,807.109009 1344.014893,807.029114 1337.625488,807.027954 
	C1240.004150,807.010620 1142.382202,807.199951 1044.762085,806.843628 
	C1022.808105,806.763550 1001.764587,801.245056 982.251343,790.795166 
	C974.088684,786.423889 965.657288,782.387939 958.068970,777.154419 
	C949.413391,771.184875 941.437805,764.340393 935.299927,755.385925 
	C930.884644,748.944641 924.631775,743.793335 919.790955,737.603333 
	C916.168213,732.971008 913.169739,727.766052 910.452942,722.525879 
	C903.181519,708.500916 897.493286,693.813965 895.017273,678.165222 
	C893.691956,669.788818 893.390503,661.222534 893.047729,652.724976 
	C892.485168,638.778076 892.636597,624.777344 896.166687,611.199036 
	C898.483093,602.289001 901.941101,593.667480 905.041809,584.971619 
	C909.295349,573.042603 916.265320,562.579651 923.875305,552.669128 
	C929.792358,544.963257 936.732727,538.028809 943.393921,530.916077 
	C945.873047,528.268860 948.815491,526.046387 951.608521,523.703979 
	C963.192261,513.989197 976.171997,506.427917 990.078674,500.784607 
	C1004.791504,494.814209 1019.949341,489.947388 1036.154785,489.966522 
	C1048.071167,489.980591 1059.987549,489.998108 1071.903931,490.026062 
	C1072.901001,490.028412 1073.916870,490.015594 1074.891846,490.189636 
	C1087.138550,492.375366 1087.574219,491.847321 1094.416504,482.167297 
	C1102.116821,471.273163 1109.846558,460.283569 1118.719360,450.370178 
	C1126.193115,442.020020 1135.045288,434.810608 1143.784180,427.707703 
	C1156.743774,417.174347 1171.264160,409.136810 1186.467896,402.194214 
	C1205.428955,393.535889 1225.306152,388.319977 1245.789429,385.104370 
	C1249.214478,384.566681 1252.694580,384.379456 1256.725342,384.247131 
	C1257.867554,384.302612 1258.433838,384.141235 1259.000000,383.979858 
	C1267.158569,383.975342 1275.354858,383.472656 1283.466309,384.087860 
	C1294.482666,384.923401 1305.634033,385.731415 1316.362305,388.162598 
	C1329.632324,391.169678 1342.724976,395.285675 1355.529419,399.928345 
	C1368.054932,404.469788 1379.536499,411.223907 1390.700195,418.667511 
	C1404.238525,427.694427 1416.618286,437.985168 1427.869141,449.599731 
	C1433.832031,455.755341 1438.674561,462.979980 1444.296021,469.486023 
	C1452.905273,479.450134 1458.317505,491.368958 1464.914062,502.558319 
	C1466.736938,505.650421 1467.796143,509.192841 1469.204224,512.529297 
	C1473.461914,522.619019 1477.172974,532.853271 1479.165527,543.699829 
	C1480.818848,552.698792 1483.032715,561.596252 1485.061279,570.524292 
	C1485.888550,574.165588 1491.380615,577.666992 1495.267822,576.737732 
	C1509.028320,573.448059 1522.947021,572.185181 1537.760742,573.244019 
	C1539.648804,573.662292 1540.838745,573.804810 1542.028687,573.947266 
	C1552.419312,573.983337 1562.051147,577.386292 1571.477661,581.147095 
	C1579.128784,584.199585 1586.700195,587.682312 1593.771729,591.876648 
	C1598.456055,594.655029 1602.392456,598.829285 1606.307861,602.735352 
	C1611.239624,607.655334 1616.324219,612.559082 1620.433228,618.139709 
	C1631.083252,632.603760 1639.343872,648.294800 1642.048096,666.365540 
	C1643.173096,673.884216 1644.960449,681.473694 1644.749268,688.983215 
	C1644.420776,700.664307 1643.728394,712.379456 1640.177368,723.797485 
	C1635.239990,739.673157 1627.238770,753.780945 1616.614380,766.315002 
	C1611.555542,772.283081 1605.153442,777.121094 1599.301880,782.406616 
	C1588.685547,791.995972 1575.556396,797.039856 1562.518188,801.996887 
	C1556.741821,804.192993 1550.332764,804.739319 1544.197998,805.970337 
	C1542.097656,806.391846 1539.957886,806.617371 1537.140869,806.666626 
	C1533.963745,806.609253 1531.481934,806.817688 1529.000000,807.026123 
	C1515.991211,807.030457 1502.982300,807.034790 1489.160034,807.027588 
	C1487.883301,807.031433 1487.420166,807.046814 1486.956909,807.062195 
z" />
	<path fill="#ffa00c" opacity="1.000000" stroke="none" d="
M1356.739014,807.536499 
	C1366.540405,788.475098 1376.397095,769.853943 1385.958130,751.082275 
	C1388.428711,746.231750 1391.598755,745.135498 1396.973022,745.189331 
	C1432.115234,745.541565 1467.262573,745.355713 1502.408325,745.386597 
	C1512.974731,745.395874 1513.364868,745.853516 1507.865479,754.536438 
	C1500.614746,765.984558 1492.902588,777.139771 1485.449463,788.460754 
	C1481.731445,794.108276 1478.148193,799.844543 1474.379028,805.837036 
	C1471.532227,809.592896 1468.580688,812.899109 1466.145020,816.549561 
	C1462.958252,821.325806 1460.179199,826.374084 1457.295654,831.646240 
	C1457.236816,832.101990 1457.107178,832.216736 1456.630371,832.662781 
	C1455.528564,834.328247 1454.773560,835.662354 1454.018677,836.996521 
	C1453.575439,837.595764 1453.132202,838.195007 1452.446777,839.217163 
	C1451.748291,840.431335 1451.291748,841.222717 1450.835327,842.014038 
	C1450.835327,842.014038 1450.723022,842.216248 1450.475586,842.434814 
	C1449.836792,843.437134 1449.445435,844.220886 1449.054199,845.004639 
	C1448.302368,845.753113 1447.550415,846.501526 1446.516968,847.742432 
	C1443.839478,852.149536 1441.443481,856.064270 1439.047607,859.979004 
	C1438.895020,860.284485 1438.742432,860.590027 1438.379761,861.234985 
	C1437.419922,862.714478 1436.670166,863.854553 1435.920166,864.994507 
	C1434.207764,867.579712 1432.495239,870.164917 1430.500977,873.203735 
	C1429.772583,874.438354 1429.325806,875.219177 1428.878906,876.000000 
	C1428.878906,876.000000 1428.730957,876.211365 1428.458496,876.456360 
	C1427.050537,878.435974 1425.915161,880.170593 1424.164551,882.845154 
	C1432.146362,882.845154 1438.554077,882.845154 1444.961914,882.845093 
	C1446.704468,882.978516 1448.447021,883.112000 1450.916260,883.375183 
	C1466.075439,883.876587 1480.508057,884.248230 1494.940552,884.619873 
	C1500.654419,884.836792 1506.368408,885.053711 1512.851562,885.401245 
	C1517.070312,885.820007 1520.519897,886.108093 1524.604370,886.449219 
	C1522.963257,889.365784 1521.941528,891.181702 1520.919678,892.997559 
	C1520.919678,892.997559 1520.752197,893.194580 1520.461792,893.396606 
	C1519.287354,894.693604 1518.403442,895.788635 1517.519531,896.883667 
	C1517.519531,896.883667 1517.150635,896.838318 1516.742676,897.062622 
	C1515.261230,898.842407 1514.187744,900.398010 1513.114258,901.953491 
	C1513.114136,901.953491 1512.804932,902.149841 1512.508545,902.464600 
	C1510.059937,905.805420 1507.907837,908.831421 1505.755859,911.857544 
	C1505.755859,911.857544 1505.869385,911.940369 1505.612061,911.945679 
	C1505.216064,912.305786 1505.077393,912.660645 1504.938599,913.015503 
	C1504.938599,913.015503 1504.774048,913.191650 1504.476929,913.399414 
	C1502.739380,915.409668 1501.298950,917.212158 1499.858521,919.014648 
	C1499.858521,919.014648 1499.734619,919.221130 1499.466675,919.429688 
	C1495.069946,924.736694 1490.941040,929.835266 1486.812256,934.933838 
	C1485.726440,936.190857 1484.640503,937.447937 1483.348633,939.116333 
	C1482.340210,940.629517 1481.537842,941.731384 1480.735596,942.833313 
	C1480.735596,942.833313 1480.864380,942.864014 1480.510986,942.814819 
	C1479.737183,943.494141 1479.316772,944.222717 1478.896362,944.951233 
	C1478.896362,944.951233 1478.973389,944.984070 1478.637329,945.052979 
	C1475.519409,948.743103 1472.737671,952.364258 1469.955811,955.985413 
	C1469.509155,956.340637 1469.062500,956.695862 1468.251953,957.421143 
	C1462.859253,964.155029 1457.830322,970.518921 1452.801392,976.882812 
	C1452.801392,976.882812 1452.901978,976.907776 1452.549561,976.890259 
	C1450.790039,978.912964 1449.383057,980.953186 1447.976074,982.993408 
	C1446.854858,984.224670 1445.733765,985.455994 1444.390137,987.088135 
	C1443.188721,988.646179 1442.209839,989.803284 1441.231079,990.960327 
	C1441.231079,990.960388 1440.907837,991.292419 1440.610229,991.635254 
	C1439.830566,992.653076 1439.348511,993.328125 1438.866455,994.003174 
	C1429.895020,1005.183777 1420.998535,1016.425659 1411.928223,1027.525513 
	C1404.682617,1036.392578 1397.141357,1045.017944 1389.881714,1053.873901 
	C1378.405151,1067.874023 1367.033081,1081.960205 1355.657349,1096.042847 
	C1347.968506,1105.561279 1340.354126,1115.140137 1332.675781,1124.667236 
	C1332.419556,1124.985352 1331.830811,1125.035400 1330.043457,1124.598999 
	C1349.552246,1075.652710 1369.061035,1026.706299 1388.882202,976.976135 
	C1386.149902,976.749634 1384.405151,976.481445 1382.659912,976.478516 
	C1346.336304,976.417664 1310.012817,976.358521 1273.689209,976.392456 
	C1269.921631,976.395935 1268.796875,975.871643 1270.853638,971.910339 
	C1279.879639,954.526855 1288.518677,936.942932 1297.476318,919.523376 
	C1304.384277,906.090027 1311.510132,892.767761 1318.625854,879.442444 
	C1325.090942,867.336304 1331.703613,855.309082 1338.189453,843.213989 
	C1340.916870,838.127563 1343.485962,832.956238 1346.232422,827.489014 
	C1349.786621,820.743286 1353.235352,814.332031 1356.739014,807.536499 
z" />
	<path fill="#DBDBDB" opacity="1.000000" stroke="none" d="
M874.104370,620.071350 
	C874.104370,620.071350 874.074341,620.552612 873.579590,620.783325 
	C816.269287,621.011841 759.453552,620.942200 702.638611,621.120544 
	C697.442017,621.136841 691.501465,621.416443 687.195435,623.852417 
	C673.662842,631.507812 668.364685,644.413696 678.034241,659.525330 
	C683.525574,668.107300 692.515869,669.835876 701.493347,669.875916 
	C758.973999,670.132446 816.456238,670.033630 873.937988,670.051697 
	C875.060242,676.229370 875.948853,682.462524 877.398743,688.562317 
	C878.177063,691.836792 877.198425,692.942261 874.162781,692.972595 
	C872.329651,692.990906 870.496338,692.983643 868.663086,692.983643 
	C692.671997,692.984131 516.680908,692.984192 340.689789,692.984436 
	C332.581665,692.984436 332.955017,692.985107 332.946045,684.999329 
	C332.929474,670.210510 331.961823,655.413147 332.247864,640.635925 
	C332.606018,622.133179 341.248322,604.653442 363.434357,600.060425 
	C367.457703,599.227539 371.666809,598.987854 375.790283,598.986511 
	C541.281921,598.933411 706.773560,598.939270 872.265198,598.937561 
	C873.903137,598.937500 875.541138,598.937561 878.405029,598.937561 
	C877.198486,605.101868 876.113647,610.644531 874.760620,616.798462 
	C874.363159,618.296997 874.233765,619.184204 874.104370,620.071350 
M502.500000,669.985352 
	C539.485046,669.985352 576.470093,670.013855 613.455017,669.942322 
	C617.248413,669.934937 621.169189,669.836487 624.811340,668.913757 
	C640.879822,664.843140 647.904724,648.461914 640.348938,634.086304 
	C635.382751,624.637817 626.642822,621.041443 616.268311,621.037170 
	C588.279602,621.025513 560.290955,621.032043 532.302246,621.032043 
	C497.316406,621.032104 462.330536,621.006226 427.344757,621.051819 
	C418.412445,621.063477 406.555908,626.653137 402.742462,639.315857 
	C400.611389,646.392212 403.641144,657.466492 409.830414,663.400879 
	C415.579651,668.913391 422.698669,669.893311 430.029175,669.933655 
	C453.852142,670.064941 477.676300,669.984375 502.500000,669.985352 
z" />
	<path fill="#DBDBDB" opacity="1.000000" stroke="none" d="
M867.000000,744.959351 
	C773.356201,744.959412 680.212341,744.943848 587.068542,744.974243 
	C570.619690,744.979614 566.982605,730.039856 571.780823,721.522400 
	C574.481079,716.729126 578.679810,714.507263 583.950012,714.026550 
	C585.768372,713.860657 587.613403,713.980408 589.446228,713.980408 
	C685.922546,713.979248 782.398987,714.014099 878.875122,713.874390 
	C883.614624,713.867554 885.744263,715.250000 887.605286,719.737305 
	C890.703308,727.207153 895.032654,734.165649 898.823669,741.349915 
	C899.256104,742.169312 899.561829,743.055603 900.373169,744.959412 
	C888.936584,744.959412 878.218262,744.959412 867.000000,744.959351 
z" />
	<path fill="#EDEDED" opacity="1.000000" stroke="none" d="
M873.960754,669.596924 
	C816.456238,670.033630 758.973999,670.132446 701.493347,669.875916 
	C692.515869,669.835876 683.525574,668.107300 678.034241,659.525330 
	C668.364685,644.413696 673.662842,631.507812 687.195435,623.852417 
	C691.501465,621.416443 697.442017,621.136841 702.638611,621.120544 
	C759.453552,620.942200 816.269287,621.011841 873.556519,621.023315 
	C874.013367,637.069092 873.998474,653.105652 873.960754,669.596924 
z" />
	<path fill="#DBDBDB" opacity="1.000000" stroke="none" d="
M515.789307,746.060425 
	C508.472565,748.667236 503.467621,745.041260 499.170471,740.475586 
	C494.727325,735.754700 493.425537,729.828125 496.289734,723.897339 
	C499.060242,718.160706 503.355011,713.469055 510.499847,714.134949 
	C514.487915,714.506653 518.393188,716.010925 522.271851,717.211182 
	C524.262573,717.827148 526.113098,718.896240 529.304138,720.337341 
	C528.538147,722.687988 528.178284,726.076965 526.375977,728.292725 
	C525.559204,729.296875 521.609558,728.500854 519.613464,727.480225 
	C518.624023,726.974365 518.839172,724.112427 518.298523,721.168579 
	C515.695801,718.779480 510.138763,717.837952 506.151489,719.902954 
	C502.444458,721.822815 499.445160,727.302673 500.019318,731.106873 
	C500.714569,735.713379 505.104218,741.134521 509.470520,741.563843 
	C514.076355,742.016663 518.055176,740.285767 521.063293,736.274475 
	C522.129028,734.853271 524.600342,734.486206 526.429993,733.637878 
	C525.985291,735.549500 526.149170,738.069275 524.971130,739.248047 
	C522.393738,741.827148 519.135315,743.725708 515.789307,746.060425 
z" />
	<path fill="#DBDBDB" opacity="1.000000" stroke="none" d="
M399.402344,716.165955 
	C401.200684,716.163452 402.727448,716.404907 404.254181,716.646362 
	C403.606049,717.883057 403.216614,719.393188 402.257111,720.300659 
	C400.113678,722.327881 397.686066,724.054688 395.374176,725.903809 
	C395.696594,726.590454 396.019012,727.277100 396.341400,727.963745 
	C401.853241,727.963745 407.373657,727.784851 412.872925,728.047729 
	C415.219971,728.159973 417.522858,729.194458 419.845795,729.809814 
	C418.486938,733.801453 415.148163,731.681030 412.729218,731.921204 
	C409.109924,732.280640 405.425964,731.935181 401.774811,732.053162 
	C400.259064,732.102112 398.756927,732.573364 396.098236,733.065613 
	C398.854004,736.038696 400.980164,738.005066 402.654602,740.300903 
	C403.319824,741.213074 402.983856,742.855347 403.103699,744.165161 
	C401.800049,743.986389 400.064240,744.279602 399.265991,743.548767 
	C395.349182,739.962646 391.654388,736.130859 387.938782,732.329468 
	C386.287415,730.639954 386.235474,729.082275 388.165222,727.291565 
	C391.937744,723.790833 395.488281,720.050781 399.402344,716.165955 
z" />
	<path fill="#DBDBDB" opacity="1.000000" stroke="none" d="
M458.701599,741.764526 
	C456.929962,742.971375 455.417542,743.930359 453.588318,745.090210 
	C448.627930,738.134338 458.842255,737.811646 458.227509,732.759521 
	C451.659973,730.292236 443.627411,734.045654 437.003143,730.614319 
	C437.090271,729.776367 437.177368,728.938416 437.264465,728.100464 
	C444.692596,728.100464 452.120728,728.100464 459.548889,728.100464 
	C459.711609,727.587341 459.874298,727.074280 460.037018,726.561157 
	C457.870544,724.700134 455.450348,723.052795 453.633789,720.896912 
	C452.563293,719.626404 452.450073,717.549377 451.906342,715.835022 
	C453.692261,716.181946 455.962494,715.957031 457.173462,716.982788 
	C460.845764,720.093262 464.111969,723.683899 467.528442,727.095520 
	C469.607391,729.171509 469.363770,731.156433 467.338348,733.142517 
	C464.519379,735.906921 461.750916,738.722778 458.701599,741.764526 
z" />
	<path fill="#EDEDED" opacity="1.000000" stroke="none" d="
M1474.976318,807.512451 
	C1476.696533,807.058228 1478.430542,807.029907 1480.598389,807.020752 
	C1481.138916,810.540161 1481.237549,814.036926 1475.930542,816.120422 
	C1475.595215,813.201721 1475.292725,810.570068 1474.976318,807.512451 
z" />
	<path fill="#EDEDED" opacity="1.000000" stroke="none" d="
M1529.271729,807.303589 
	C1531.481934,806.817688 1533.963745,806.609253 1536.722900,806.668701 
	C1534.514526,807.151428 1532.028931,807.366211 1529.271729,807.303589 
z" />
	<path fill="#EDEDED" opacity="1.000000" stroke="none" d="
M1541.870728,573.663330 
	C1540.838745,573.804810 1539.648804,573.662292 1538.229248,573.240723 
	C1539.237427,573.100891 1540.475098,573.240173 1541.870728,573.663330 
z" />
	<path fill="#EDEDED" opacity="1.000000" stroke="none" d="
M874.418579,620.005249 
	C874.233765,619.184204 874.363159,618.296997 874.766357,617.204773 
	C874.937744,617.979553 874.835327,618.959351 874.418579,620.005249 
z" />
	<path fill="#EDEDED" opacity="1.000000" stroke="none" d="
M1487.010010,807.350586 
	C1487.420166,807.046814 1487.883301,807.031433 1488.694092,807.037598 
	C1488.709717,807.557800 1488.377686,808.056580 1488.045776,808.555298 
	C1487.718140,808.249878 1487.390625,807.944397 1487.010010,807.350586 
z" />
	<path fill="#EDEDED" opacity="1.000000" stroke="none" d="
M1258.849854,383.758484 
	C1258.433838,384.141235 1257.867554,384.302612 1257.150635,384.244873 
	C1257.566650,383.862854 1258.133179,383.699982 1258.849854,383.758484 
z" />
	<path fill="#DADADA" opacity="1.000000" stroke="none" d="
M760.671875,1031.410645 
	C778.805725,1050.032959 796.742310,1068.372681 815.016296,1087.057251 
	C817.364868,1084.913696 818.717407,1083.772095 819.965332,1082.525879 
	C836.349487,1066.163696 852.833862,1049.898926 869.004333,1033.327881 
	C872.656433,1029.585449 874.836731,1029.780273 878.120178,1033.495361 
	C883.560242,1039.650269 889.419189,1045.435059 894.680481,1050.935547 
	C876.923401,1068.996216 859.726501,1086.661743 842.281067,1104.078247 
	C838.928040,1107.425781 838.670288,1109.387573 842.180420,1112.828979 
	C859.214294,1129.529175 875.992493,1146.490234 892.852600,1163.367310 
	C893.548218,1164.063721 894.157166,1164.846802 895.265747,1166.114868 
	C893.180908,1168.070923 891.117310,1169.880493 889.199158,1171.833008 
	C885.270264,1175.832520 881.210449,1179.732056 877.599548,1184.006470 
	C874.457947,1187.725342 872.330811,1187.000977 869.218445,1183.837646 
	C852.979553,1167.332397 836.536621,1151.027710 820.158020,1134.660034 
	C818.894653,1133.397461 817.580017,1132.186401 815.974854,1130.650635 
	C808.398315,1138.205322 801.122009,1145.416382 793.895142,1152.676758 
	C782.909912,1163.712524 771.991089,1174.814697 760.916992,1185.760132 
	C760.233826,1186.435425 757.835083,1186.573975 757.259766,1185.976074 
	C750.755554,1179.215088 744.451721,1172.261597 737.730347,1164.964844 
	C738.171753,1164.494995 739.355896,1163.165283 740.612244,1161.907715 
	C757.095947,1145.409424 773.545166,1128.876221 790.125427,1112.475464 
	C792.871765,1109.758911 793.625305,1107.951172 790.447021,1104.814697 
	C772.685974,1087.287109 755.134033,1069.547607 736.610718,1050.978271 
	C743.479370,1044.417603 750.445068,1037.702026 757.534485,1031.119629 
	C758.059448,1030.632202 759.473694,1031.102783 760.671875,1031.410645 
z" />
	<path fill="#DADADA" opacity="1.000000" stroke="none" d="
M1074.749390,1055.250610 
	C1085.095703,1065.646118 1095.191284,1075.792358 1105.470825,1086.123291 
	C1124.288086,1066.861084 1142.836914,1047.873657 1162.440308,1027.806763 
	C1170.935303,1036.585693 1177.992798,1043.879272 1185.118530,1051.243286 
	C1168.049072,1068.359375 1151.394043,1085.060181 1134.738647,1101.760620 
	C1133.680054,1102.822144 1132.711426,1103.998535 1131.541504,1104.919067 
	C1128.371704,1107.412964 1128.817261,1109.462891 1131.576294,1112.186401 
	C1147.579590,1127.983398 1163.415405,1143.949829 1179.351929,1159.814697 
	C1181.229126,1161.683472 1183.375977,1163.281372 1185.849854,1165.390015 
	C1182.576172,1168.418823 1180.024536,1170.668335 1177.600220,1173.047485 
	C1173.598999,1176.974365 1169.494385,1180.821289 1165.791870,1185.018066 
	C1163.344849,1187.791626 1162.176025,1186.883057 1159.980469,1184.656250 
	C1142.760010,1167.191162 1125.374756,1149.888550 1108.026611,1132.549561 
	C1107.465576,1131.988770 1106.757202,1131.575195 1104.547607,1129.873047 
	C1103.628174,1131.484009 1103.005615,1133.389526 1101.744263,1134.661255 
	C1085.322021,1151.218018 1068.752441,1167.628784 1052.373901,1184.228271 
	C1049.514038,1187.126709 1047.657349,1187.379395 1044.702759,1184.328735 
	C1038.867798,1178.304321 1032.629395,1172.670654 1025.732544,1166.087769 
	C1033.141846,1158.929199 1039.847534,1152.587036 1046.399780,1146.089966 
	C1058.046875,1134.540894 1069.569580,1122.866211 1081.221558,1111.322144 
	C1083.433594,1109.130493 1083.117676,1107.536865 1081.045166,1105.499023 
	C1068.044067,1092.715210 1055.138794,1079.833618 1042.152588,1067.034546 
	C1037.202393,1062.155518 1032.121826,1057.409058 1026.338867,1051.873047 
	C1033.388184,1044.616333 1040.043823,1037.599365 1047.002441,1030.896973 
	C1047.597900,1030.323486 1050.665405,1031.365479 1051.807739,1032.464600 
	C1059.488892,1039.854736 1066.959717,1047.463379 1074.749390,1055.250610 
z" />
	<path fill="#DADADA" opacity="1.000000" stroke="none" d="
M1123.394775,1327.153320 
	C1119.035889,1333.857422 1114.891602,1340.253784 1110.635986,1346.575439 
	C1108.979492,1349.036133 1107.117676,1351.027588 1103.689453,1348.872559 
	C1086.281250,1337.929199 1067.146729,1331.194336 1047.165527,1327.146973 
	C1030.662231,1323.803711 1013.995422,1320.901978 997.259583,1319.178345 
	C981.280396,1317.532593 965.060181,1316.502075 949.051880,1317.307739 
	C929.781921,1318.277466 910.493835,1320.706177 891.458740,1323.944214 
	C876.344543,1326.515259 861.395325,1330.613159 846.764099,1335.263672 
	C837.460388,1338.220947 828.735474,1343.167114 820.013977,1347.724731 
	C814.786621,1350.456299 814.268494,1350.763916 810.903503,1345.771362 
	C806.283630,1338.916626 801.710999,1332.030273 796.592041,1324.370239 
	C802.995728,1320.835938 809.077271,1317.349121 815.275146,1314.082764 
	C836.082581,1303.117310 858.667725,1297.323853 881.434387,1292.574341 
	C895.306702,1289.680298 909.557312,1288.339844 923.708496,1287.115601 
	C937.908447,1285.887451 952.214966,1284.875610 966.439819,1285.218750 
	C982.794800,1285.613037 999.104370,1287.695312 1015.446411,1288.866943 
	C1034.729126,1290.249023 1053.324585,1295.154663 1071.795532,1300.282593 
	C1089.134277,1305.096191 1105.550903,1312.455078 1120.917725,1321.949341 
	C1122.604370,1322.991699 1125.127686,1323.874512 1123.394775,1327.153320 
z" />
	<path fill="#FFFFFF" opacity="1.000000" stroke="none" d="
M1494.813721,884.270386 
	C1480.508057,884.248230 1466.075439,883.876587 1451.335205,883.235779 
	C1452.265747,882.656860 1453.510132,882.056335 1454.741455,882.082275 
	C1467.496948,882.350647 1480.250732,882.709473 1493.003174,883.095703 
	C1493.572266,883.112915 1494.125977,883.634399 1494.813721,884.270386 
z" />
	<path fill="#FFFFFF" opacity="1.000000" stroke="none" d="
M1453.164917,976.881470 
	C1457.830322,970.518921 1462.859253,964.155029 1468.205933,957.720703 
	C1468.915771,958.469238 1469.855347,959.765564 1469.618896,960.036682 
	C1464.801270,965.563354 1459.857910,970.980835 1454.901245,976.384705 
	C1454.609863,976.702332 1453.993530,976.721863 1453.164917,976.881470 
z" />
	<path fill="#FFFFFF" opacity="1.000000" stroke="none" d="
M1444.853760,882.470459 
	C1438.554077,882.845154 1432.146362,882.845154 1424.164551,882.845154 
	C1425.915161,880.170593 1427.050537,878.435974 1428.534912,876.560303 
	C1428.404541,880.170837 1430.122070,881.234985 1433.749268,881.131897 
	C1437.402588,881.028076 1441.079102,881.740784 1444.853760,882.470459 
z" />
	<path fill="#FFFFFF" opacity="1.000000" stroke="none" d="
M1487.202881,934.934448 
	C1490.941040,929.835266 1495.069946,924.736694 1499.545654,919.520508 
	C1497.973389,922.565552 1495.319702,925.516418 1494.330078,928.947388 
	C1493.220093,932.795349 1491.231201,934.497559 1487.202881,934.934448 
z" />
	<path fill="#FFFFFF" opacity="1.000000" stroke="none" d="
M1521.272949,892.951294 
	C1521.941528,891.181702 1522.963257,889.365784 1524.604370,886.449219 
	C1520.519897,886.108093 1517.070312,885.820007 1513.307129,885.280518 
	C1516.679199,884.765442 1520.453247,883.904419 1524.021851,884.432617 
	C1526.726440,884.833008 1528.151245,887.321594 1525.466187,889.932983 
	C1524.313232,891.054260 1522.913696,891.921936 1521.272949,892.951294 
z" />
	<path fill="#FFFFFF" opacity="1.000000" stroke="none" d="
M1439.386230,859.932739 
	C1441.443481,856.064270 1443.839478,852.149536 1446.530518,848.078857 
	C1446.707886,849.555664 1447.169556,851.604675 1446.355713,852.737305 
	C1444.473755,855.356262 1441.973999,857.531372 1439.386230,859.932739 
z" />
	<path fill="#FFFFFF" opacity="1.000000" stroke="none" d="
M1470.304688,955.940369 
	C1472.737671,952.364258 1475.519409,948.743103 1478.623291,945.013550 
	C1479.172729,950.825500 1473.780029,952.505493 1470.304688,955.940369 
z" />
	<path fill="#FFFFFF" opacity="1.000000" stroke="none" d="
M1506.124268,911.863159 
	C1507.907837,908.831421 1510.059937,905.805420 1512.542236,902.644653 
	C1510.745850,905.629456 1508.619385,908.749146 1506.124268,911.863159 
z" />
	<path fill="#FFFFFF" opacity="1.000000" stroke="none" d="
M1448.324219,982.943481 
	C1449.383057,980.953186 1450.790039,978.912964 1452.541016,976.839172 
	C1451.480713,978.834900 1450.076538,980.864197 1448.324219,982.943481 
z" />
	<path fill="#FFFFFF" opacity="1.000000" stroke="none" d="
M1500.221924,918.964417 
	C1501.298950,917.212158 1502.739380,915.409668 1504.531250,913.507080 
	C1503.450195,915.242615 1502.017700,917.078369 1500.221924,918.964417 
z" />
	<path fill="#FFFFFF" opacity="1.000000" stroke="none" d="
M1513.483032,901.943420 
	C1514.187744,900.398010 1515.261230,898.842407 1516.644775,897.220520 
	C1516.948242,899.414551 1517.202393,901.844055 1513.483032,901.943420 
z" />
	<path fill="#FFFFFF" opacity="1.000000" stroke="none" d="
M1454.374023,836.937622 
	C1454.773560,835.662354 1455.528564,834.328247 1456.616821,832.922241 
	C1456.209839,834.193176 1455.469482,835.535950 1454.374023,836.937622 
z" />
	<path fill="#FFFFFF" opacity="1.000000" stroke="none" d="
M1441.600586,990.945557 
	C1442.209839,989.803284 1443.188721,988.646179 1444.501465,987.401367 
	C1443.880249,988.519409 1442.925171,989.725159 1441.600586,990.945557 
z" />
	<path fill="#FFFFFF" opacity="1.000000" stroke="none" d="
M1436.296753,864.940308 
	C1436.670166,863.854553 1437.419922,862.714478 1438.515503,861.464355 
	C1438.131836,862.531494 1437.402588,863.708740 1436.296753,864.940308 
z" />
	<path fill="#FFFFFF" opacity="1.000000" stroke="none" d="
M1481.134155,942.840820 
	C1481.537842,941.731384 1482.340210,940.629517 1483.486572,939.421753 
	C1483.064697,940.493408 1482.298706,941.670898 1481.134155,942.840820 
z" />
	<path fill="#FFFFFF" opacity="1.000000" stroke="none" d="
M1517.928955,896.875854 
	C1518.403442,895.788635 1519.287354,894.693604 1520.527588,893.507935 
	C1520.035156,894.567566 1519.186646,895.717834 1517.928955,896.875854 
z" />
	<path fill="#FFFFFF" opacity="1.000000" stroke="none" d="
M1479.241333,944.908691 
	C1479.316772,944.222717 1479.737183,943.494141 1480.496094,942.750305 
	C1480.418457,943.445374 1480.002441,944.155762 1479.241333,944.908691 
z" />
	<path fill="#FFFFFF" opacity="1.000000" stroke="none" d="
M1429.249023,875.926880 
	C1429.325806,875.219177 1429.772583,874.438354 1430.559082,873.535889 
	C1430.472168,874.227417 1430.045654,875.040527 1429.249023,875.926880 
z" />
	<path fill="#FFFFFF" opacity="1.000000" stroke="none" d="
M1449.406616,844.917542 
	C1449.445435,844.220886 1449.836792,843.437134 1450.552734,842.520996 
	C1450.504517,843.202576 1450.131836,844.016479 1449.406616,844.917542 
z" />
	<path fill="#FFFFFF" opacity="1.000000" stroke="none" d="
M1451.214233,841.940918 
	C1451.291748,841.222717 1451.748291,840.431335 1452.542603,839.510864 
	C1452.451416,840.210449 1452.022217,841.039124 1451.214233,841.940918 
z" />
	<path fill="#FFFFFF" opacity="1.000000" stroke="none" d="
M1439.213867,993.945557 
	C1439.348511,993.328125 1439.830566,992.653076 1440.622437,991.866638 
	C1440.475220,992.466125 1440.018188,993.177063 1439.213867,993.945557 
z" />
	<path fill="#FFFFFF" opacity="1.000000" stroke="none" d="
M1505.168701,912.874939 
	C1505.077393,912.660645 1505.216064,912.305786 1505.641235,911.881714 
	C1505.751343,912.119812 1505.574951,912.427063 1505.168701,912.874939 
z" />
	<path fill="#FFFFFF" opacity="1.000000" stroke="none" d="
M502.000000,669.985352 
	C477.676300,669.984375 453.852142,670.064941 430.029175,669.933655 
	C422.698669,669.893311 415.579651,668.913391 409.830414,663.400879 
	C403.641144,657.466492 400.611389,646.392212 402.742462,639.315857 
	C406.555908,626.653137 418.412445,621.063477 427.344757,621.051819 
	C462.330536,621.006226 497.316406,621.032104 532.302246,621.032043 
	C560.290955,621.032043 588.279602,621.025513 616.268311,621.037170 
	C626.642822,621.041443 635.382751,624.637817 640.348938,634.086304 
	C647.904724,648.461914 640.879822,664.843140 624.811340,668.913757 
	C621.169189,669.836487 617.248413,669.934937 613.455017,669.942322 
	C576.470093,670.013855 539.485046,669.985352 502.000000,669.985352 
z" />
</svg>